<svg width="116" height="33" viewBox="0 0 116 33" fill="none" xmlns="http://www.w3.org/2000/svg">
<path d="M38.9527 29.1447L40.0437 32.0995H31.5428L31.0882 30.8721C28.0424 23.0531 21.178 27.9173 17.6776 24.0987C15.6774 21.9621 15.2228 19.7346 19.2687 16.5524C21.0871 15.1432 21.4962 13.1429 20.9507 11.5064L19.0414 6.41494L8.54029 32.0086H0.0848359L13.1317 0.277916H26.0422L30.2245 11.6428C31.3609 14.8249 29.8608 16.9615 26.3604 17.2343C20.5871 17.7343 17.814 19.6891 17.2685 20.9165C16.7685 22.0075 17.5867 22.4621 18.2232 22.3258C19.1323 22.0985 20.7689 19.5982 26.1331 19.5982C33.3612 19.5982 37.3161 24.5078 38.9527 29.1447ZM82.0326 21.0074C82.0326 21.462 82.0326 21.9621 82.0326 22.5531C81.9417 26.1443 80.9416 31.6904 72.2134 32.0541C56.4844 32.6451 61.9395 14.9159 61.8486 12.4156C61.8031 11.2336 60.803 10.7336 59.8029 11.6882C56.9844 14.5522 63.0306 32.0541 49.9837 32.0541C42.392 32.0541 40.8463 27.0535 40.7554 21.8712V0.277916H49.0745V21.5075C49.0745 28.3719 49.9382 30.0993 52.7567 30.0993C61.6213 30.0993 44.8922 10.0517 63.3033 10.0517C77.5321 10.0517 61.5759 31.054 70.2586 31.054C71.486 31.054 73.7135 30.6903 73.7135 23.8259V0.277916H82.0326V21.0074ZM103.311 1.32348C96.8101 1.32348 96.0828 6.82408 101.538 9.96078C106.993 13.1429 107.357 15.3705 106.084 17.5071C103.811 21.3711 92.4006 17.5525 92.4006 23.8259C92.4006 27.9627 95.9464 31.0085 102.765 31.0085L115.858 30.9631V32.0541H100.492C86.9909 32.0541 84.7179 26.6444 84.7179 22.2348C84.7179 18.2344 87.1727 13.4612 95.5827 13.4612C101.174 13.4612 103.447 15.916 104.72 15.916C105.402 15.916 105.993 15.0522 105.038 14.0067C103.993 12.7793 100.765 11.7792 94.3553 10.6881C86.9 9.36981 87.5819 0.323378 95.0372 0.323378H115.858V1.4144L103.311 1.32348Z" fill="black"/>
</svg>
