<svg width="1440" height="744" viewBox="0 0 1440 744" fill="none" xmlns="http://www.w3.org/2000/svg">
<path d="M310.732 28.8764C226.793 -12.0153 -0.91494 55.9725 -117 110.165L-41.8578 -193.667L661.878 -136.365C675.365 -105.271 709.564 -94.4413 709.564 19.5485C709.564 125.668 556.39 259.415 479.802 404.668C403.215 549.921 507.258 703.169 576.62 457.972C645.982 212.775 865.629 176.795 969.672 167.466C1073.71 158.138 1213.88 200.781 1361.28 363.358C1479.19 493.419 1678.22 632.542 1763 685.845L1423.41 908.388C1353.09 844.868 1182.67 687.444 1063.6 565.912C914.76 413.996 801.711 599.128 650.317 677.85C584.324 712.165 349.749 709.832 397.435 429.987C445.121 150.143 378.11 61.7 310.732 28.8764Z" fill="white" fill-opacity="0.3"/>
</svg>
