<svg width="1440" height="504" viewBox="0 0 1440 504" fill="none" xmlns="http://www.w3.org/2000/svg">
<path d="M180.4 80.0186C127.12 42.0678 25 95.8315 -19.4 127.457L-49 389.851C4.77333 305.845 114.096 135.759 121.2 127.457C130.08 117.08 187.8 69.6413 180.4 240.123C173 410.606 215.92 453.631 249.96 462.525C284 471.42 358.503 462.525 474.92 357.237C627.36 219.369 716.16 194.167 1049.16 240.123C1315.56 276.888 1513.39 431.36 1579 504L1573.08 252.724L1567.16 1.44855C1462.57 -3.49296 1175.55 1.44856 864.16 60.7467C474.92 134.869 452.72 306.834 374.28 332.036C295.84 357.237 276.6 266.808 264.76 240.123C252.92 213.439 247 127.457 180.4 80.0186Z" fill="#FDFEFE" fill-opacity="0.89"/>
</svg>
